<?xml version="1.0" standalone="no"?>
<!DOCTYPE svg PUBLIC "-//W3C//DTD SVG 1.1//EN" "http://www.w3.org/Graphics/SVG/1.1/DTD/svg11.dtd" >
<svg xmlns="http://www.w3.org/2000/svg" xmlns:xlink="http://www.w3.org/1999/xlink" version="1.1">
<metadata>
Created by FontForge 20161013 at Fri Jan  1 02:30:17 1904
 By ,,,
Copyright (c) 1992 Corel Corporation. All Rights Reserved.
</metadata>
<defs>
<font id="LCDITC-Normal" horiz-adv-x="3191" >
  <font-face 
    font-family="LCD"
    font-weight="400"
    font-stretch="normal"
    units-per-em="4096"
    panose-1="2 11 0 0 0 0 0 0 0 0"
    ascent="3276"
    descent="-820"
    x-height="3072"
    cap-height="3072"
    bbox="-57 -1311 4153 3785"
    underline-thickness="50"
    underline-position="-175"
    unicode-range="U+0020-203A"
  />
<missing-glyph horiz-adv-x="3072" 
d="M512 0v2560h2048v-2560h-2048zM2494 66v2428h-1916v-2428h1916z" />
    <glyph glyph-name=".notdef" horiz-adv-x="3072" 
d="M512 0v2560h2048v-2560h-2048zM2494 66v2428h-1916v-2428h1916z" />
    <glyph glyph-name=".null" horiz-adv-x="0" 
 />
    <glyph glyph-name="nonmarkingreturn" horiz-adv-x="0" 
 />
    <glyph glyph-name="space" unicode=" " horiz-adv-x="1896" 
 />
    <glyph glyph-name="exclam" unicode="!" horiz-adv-x="1896" 
d="M1454 2888l193 184l159 -184l-94 -1184l-192 -176l-160 176zM1327 1343l193 185l159 -185l-61 -765l-193 -177l-159 177zM1249 352h353l-33 -360h-352z" />
    <glyph glyph-name="quotedbl" unicode="&#x22;" horiz-adv-x="2335" 
d="M1241 2888h369l-66 -672h-360zM1864 2888h368l-65 -672h-361z" />
    <glyph glyph-name="dollar" unicode="$" horiz-adv-x="2486" 
d="M1135 3072h999l164 -184l-201 -185h-991l-164 185zM713 2679l192 176l168 -176l-82 -934l-200 -176l-168 176zM1016 1712h999l160 -176l-193 -184h-991l-168 184zM2015 1319l193 176l168 -176l-78 -926l-201 -184l-168 176zM1225 -49h360l-16 -168l-193 -184l-168 184z
M1864 3113h-369l16 168l201 184l168 -176zM905 360h991l168 -184l-200 -176h-992l-167 176z" />
    <glyph glyph-name="percent" unicode="%" horiz-adv-x="3920" 
d="M1638 2671l193 184l168 -184l-78 -926l-201 -176l-168 176zM705 1712h815l168 -176l-201 -184h-815l-160 184zM393 2679l201 176l168 -176l-82 -926l-201 -184l-168 176zM823 3072h815l168 -184l-196 -176h-819l-168 176zM2560 1720h815l168 -184l-201 -184h-815
l-168 184zM3375 1319l193 184l168 -184l-78 -926l-201 -184l-168 184zM2130 1327l197 176l167 -176l-86 -934l-192 -176l-168 176zM2998 2671h275v-238l-2208 -2023h-283v229zM2441 360h815l168 -176l-200 -184h-816l-167 184z" />
    <glyph glyph-name="ampersand" unicode="&#x26;" horiz-adv-x="3265" 
d="M1655 3072h991l172 -184l-201 -176h-995l-168 176zM1225 2679l200 176l168 -176l-82 -926l-200 -184l-168 184zM1536 1720h991l168 -184l-201 -176h-991l-160 176zM2961 1720l152 -184l-193 -176l-159 176zM2527 1319l201 184l168 -184l-86 -926l-193 -176l-168 176z
M1110 1327l193 176l167 -176l-77 -926l-201 -184l-168 184zM1417 369h1000l159 -185l-192 -176h-991l-168 176zM2593 2089l200 176l168 -176l-32 -344l-201 -176l-168 176z" />
    <glyph glyph-name="quotesingle" unicode="'" horiz-adv-x="1688" 
d="M1241 2888h369l-66 -672h-360z" />
    <glyph glyph-name="parenleft" unicode="(" horiz-adv-x="2310" 
d="M1249 1360l193 176l168 -176l-90 -959l-193 -184l-168 176zM1360 2679l201 184l168 -184l-91 -959l-196 -184l-168 176zM1552 369h246l168 -185l-197 -184h-249l-160 184zM1794 3072h246l168 -184l-201 -176h-246l-168 184z" />
    <glyph glyph-name="parenright" unicode=")" horiz-adv-x="2433" 
d="M2232 1712l-200 -176l-160 184l82 959l196 176l168 -176zM2114 393l-193 -184l-168 184l86 959l193 184l168 -176zM1929 2712h-258l-160 176l193 184h250l168 -184zM1688 0h-246l-168 184l196 176h250l168 -184z" />
    <glyph glyph-name="asterisk" unicode="*" horiz-adv-x="2777" 
d="M1929 1806l246 250l225 -262l-250 -250zM2167 1511l250 250l229 -274l-246 -246zM1647 1528l249 250l226 -267l-250 -245zM1888 1233l246 246l233 -271l-245 -250z" />
    <glyph glyph-name="plus" unicode="+" horiz-adv-x="2576" 
d="M1487 1679h233l135 -143l-167 -160h-234l-135 152zM2290 1376h-242l-135 152l168 160h229l148 -152zM1712 1352l168 151l143 -151l-24 -226l-168 -151l-143 151zM1761 1946l168 151l144 -151l-25 -234l-168 -151l-135 151z" />
    <glyph glyph-name="comma" unicode="," horiz-adv-x="1479" 
d="M1417 344l-33 -344l-208 -176l-160 176l33 344h368z" />
    <glyph glyph-name="hyphen" unicode="-" horiz-adv-x="2073" 
d="M815 1712h991l168 -176l-196 -184h-996l-168 184z" />
    <glyph glyph-name="period" unicode="." horiz-adv-x="1479" 
d="M1057 352h360l-33 -352h-360z" />
    <glyph glyph-name="slash" unicode="/" horiz-adv-x="1991" 
d="M1544 3072h361l-807 -3072h-369z" />
    <glyph glyph-name="zero" unicode="0" horiz-adv-x="3097" 
d="M1593 3072h992l168 -184l-201 -176h-991l-160 176zM1360 360h991l160 -176l-193 -184h-991l-168 184zM2593 2679l192 176l168 -176l-90 -967l-192 -176l-168 176zM1167 2679l201 176l160 -176l-78 -967l-201 -176l-168 176zM2474 1352l197 184l159 -184l-77 -959
l-201 -176l-168 176zM1049 1352l200 184l168 -184l-90 -959l-201 -176l-159 176z" />
    <glyph glyph-name="one" unicode="1" horiz-adv-x="2576" 
d="M2032 2712h-234l-160 184l193 176h594zM2208 176l-201 -176l-168 184l107 1176l196 176l164 -176zM2335 1712l-193 -176l-168 184l82 951l402 360z" />
    <glyph glyph-name="two" unicode="2" horiz-adv-x="3031" 
d="M1528 3072h999l160 -176l-201 -184h-991l-160 184zM1409 1720h999l168 -184l-200 -176h-992l-167 176zM983 1327l201 176l159 -176l-77 -926l-394 -368zM1294 360h996l168 -176l-201 -184h-1360zM2519 2679l201 176l168 -176l-86 -934l-193 -176l-168 176z" />
    <glyph glyph-name="three" unicode="3" horiz-adv-x="3305" 
d="M1798 3072h995l168 -184l-200 -176h-992l-167 176zM2793 2671l193 184l168 -184l-82 -926l-201 -176l-168 176zM1679 1720h992l168 -184l-197 -184h-995l-168 184zM2671 1319l200 184l168 -184l-86 -926l-192 -184l-168 184zM1561 360h999l160 -176l-193 -184h-999
l-160 184z" />
    <glyph glyph-name="four" unicode="4" horiz-adv-x="2986" 
d="M1065 2896l201 176l168 -176l-107 -1151l-201 -176l-159 176zM2486 2896l193 176l168 -176l-103 -1151l-192 -176l-168 176zM1352 1712h999l160 -176l-193 -184h-991l-168 184zM2351 1319l193 176l168 -176l-103 -1135l-192 -184l-160 176z" />
    <glyph glyph-name="five" unicode="5" horiz-adv-x="3064" 
d="M1450 369h991l168 -176l-201 -185h-983l-168 185zM2560 1327l193 176l167 -176l-81 -926l-197 -176l-164 176zM1569 1720h991l160 -184l-193 -176h-991l-168 176zM1286 3039l336 -360l-86 -926l-193 -176l-167 176zM2679 3072l160 -184l-197 -176h-987l-328 360h1352z
" />
    <glyph glyph-name="six" unicode="6" horiz-adv-x="2986" 
d="M1610 3072h991l168 -184l-201 -176h-991l-168 176zM1184 2679l192 176l168 -176l-82 -926l-196 -184l-168 184zM1487 1720h999l160 -184l-188 -184h-1004l-160 184zM2486 1319l193 184l168 -184l-78 -926l-201 -184l-168 184zM1065 1327l192 176l168 -176l-82 -934
l-200 -176l-168 176zM1376 360h991l168 -176l-200 -184h-992l-167 184z" />
    <glyph glyph-name="seven" unicode="7" horiz-adv-x="3097" 
d="M2519 2712h-991l-160 184l193 176h1351zM2703 176l-200 -176l-160 184l98 1176l201 176l168 -176zM2830 1712l-188 -176l-168 184l78 951l401 360z" />
    <glyph glyph-name="eight" unicode="8" horiz-adv-x="3174" 
d="M1679 3072h992l168 -184l-197 -176h-995l-168 176zM1257 2679l193 176l168 -176l-82 -926l-201 -184l-168 184zM1561 1720h999l160 -184l-193 -184h-999l-160 184zM2552 1319l201 184l167 -184l-81 -926l-197 -184l-168 184zM1135 1327l192 176l168 -176l-78 -934
l-200 -176l-168 176zM1450 360h991l168 -176l-201 -184h-991l-168 184zM2671 2671l200 184l160 -184l-78 -926l-200 -176l-160 176z" />
    <glyph glyph-name="nine" unicode="9" horiz-adv-x="3248" 
d="M1737 3072h999l160 -184l-193 -176h-999l-160 176zM1311 2679l200 176l160 -176l-78 -926l-200 -184l-160 176zM2728 2671l201 184l168 -184l-91 -926l-188 -176l-172 176zM1622 1712h995l168 -176l-200 -184h-992l-168 184zM2617 1319l193 184l168 -184l-82 -926
l-201 -184l-160 184zM1503 360h991l168 -176l-196 -184h-996l-167 184z" />
    <glyph glyph-name="colon" unicode=":" horiz-adv-x="1602" 
d="M1167 1712h361l-25 -352h-360zM1049 352h368l-33 -352h-368z" />
    <glyph glyph-name="semicolon" unicode=";" horiz-adv-x="1602" 
d="M1176 1696h352l-33 -344h-344zM1425 520l-32 -352l-193 -168l-160 168l33 352h352z" />
    <glyph glyph-name="less" unicode="&#x3c;" horiz-adv-x="2081" 
d="M1217 1511l663 -352l-25 -344l-1175 688l1302 754l-28 -336z" />
    <glyph glyph-name="equal" unicode="=" horiz-adv-x="2662" 
d="M1384 2122h992l168 -185l-201 -184h-991l-168 184zM1311 1319h999l164 -176l-201 -185h-991l-164 185z" />
    <glyph glyph-name="greater" unicode="&#x3e;" horiz-adv-x="2081" 
d="M1450 1561l-668 352l25 344l1175 -688l-1302 -754l33 336z" />
    <glyph glyph-name="question" unicode="?" horiz-adv-x="3199" 
d="M1688 3072h999l160 -184l-201 -176h-991l-160 176zM1569 1720h999l160 -184l-193 -184h-991l-168 184zM2679 2671l200 184l168 -184l-86 -926l-192 -176l-168 176zM1057 360h368l-32 -360h-361zM1126 1311l217 192l160 -176l-61 -733l-201 -184l-160 176z" />
    <glyph glyph-name="A" unicode="A" 
d="M1688 3072h991l168 -184l-201 -176h-991l-168 176zM1257 2679l197 184l168 -184l-78 -926l-201 -184l-167 184zM2679 2679l200 176l160 -176l-78 -934l-192 -176l-168 176zM1569 1720h999l160 -184l-201 -184h-991l-160 184zM2560 1319l201 184l168 -184l-107 -1135
l-188 -184l-168 176zM1143 1327l200 176l160 -176l-102 -1143l-193 -184l-168 184z" />
    <glyph glyph-name="B" unicode="B" horiz-adv-x="2777" 
d="M2290 3072l159 -184l-192 -185h-991l-336 369h1360zM897 3039l336 -368l-90 -926l-193 -176l-168 176zM1176 1712h991l168 -176l-201 -184h-991l-168 184zM2167 1319l200 176l160 -176l-78 -926l-192 -184l-168 184zM745 1319l197 184l168 -184l-78 -926l-401 -352z
M1057 360h999l160 -176l-201 -184h-1351zM2281 2671l197 176l168 -176l-78 -926l-201 -184l-167 184z" />
    <glyph glyph-name="C" unicode="C" horiz-adv-x="2998" 
d="M1159 1352l201 184l168 -184l-86 -959l-201 -176l-160 176zM1282 2679l188 184l168 -184l-86 -959l-192 -184l-168 176zM1470 360h996l168 -176l-201 -184h-991l-168 184zM1704 3072h999l160 -176l-201 -184h-991l-160 184z" />
    <glyph glyph-name="D" unicode="D" 
d="M2679 3072l168 -184l-201 -185h-991l-328 369h1352zM1286 3039l336 -368l-78 -951l-201 -184l-167 176zM2560 1360l201 176l168 -176l-90 -967l-193 -184l-168 184zM1143 1360l200 176l168 -184l-86 -959l-393 -352zM1454 360h995l160 -176l-192 -184h-1352zM2679 2671
l192 176l168 -176l-78 -934l-200 -193l-160 193z" />
    <glyph glyph-name="E" unicode="E" horiz-adv-x="2990" 
d="M1470 360h1004l160 -176l-201 -184h-1352zM1159 1319l201 184l168 -184l-78 -926l-401 -352zM1593 1712h992l168 -176l-201 -184h-991l-168 184zM2695 3072l160 -184l-193 -185h-991l-336 369h1360zM1303 3039l327 -368l-78 -926l-192 -176l-168 176z" />
    <glyph glyph-name="F" unicode="F" horiz-adv-x="2990" 
d="M1159 1319l201 184l168 -184l-103 -1135l-200 -184l-160 176zM1593 1712h992l159 -176l-192 -184h-991l-168 184zM1303 3039l327 -368l-78 -926l-192 -176l-168 176zM2695 3072l160 -184l-193 -185h-991l-344 369h1368z" />
    <glyph glyph-name="G" unicode="G" horiz-adv-x="3105" 
d="M1151 1352l192 184l168 -184l-86 -959l-192 -176l-168 176zM1266 2679l196 184l168 -184l-86 -959l-201 -184l-159 176zM1454 360h1004l159 -176l-200 -184h-992l-159 184zM1696 3072h991l168 -176l-201 -184h-991l-168 184zM2359 1712h570l-394 -360h-208l-168 200z
M2568 1319l393 360l-114 -1286l-201 -184l-160 184z" />
    <glyph glyph-name="H" unicode="H" horiz-adv-x="3207" 
d="M1274 2896l196 176l168 -184l-102 -1143l-193 -176l-167 176zM2695 2896l201 176l160 -184l-103 -1143l-192 -176l-168 176zM1569 1712h991l168 -176l-201 -184h-991l-168 184zM2560 1319l193 176l167 -176l-98 -1135l-196 -184l-160 176zM1143 1319l192 184l168 -184
l-102 -1135l-201 -184l-160 184z" />
    <glyph glyph-name="I" unicode="I" horiz-adv-x="1622" 
d="M1192 2888l192 184l168 -184l-102 -1176l-193 -184l-167 176zM1057 1352l200 176l160 -185l-98 -1167l-201 -176l-168 176z" />
    <glyph glyph-name="J" unicode="J" horiz-adv-x="3207" 
d="M1450 360h991l168 -176l-201 -184h-991l-168 184zM2687 2888l201 184l168 -184l-103 -1176l-192 -184l-168 184zM1135 1352l200 176l160 -176l-78 -959l-200 -176l-160 176zM2560 1352l193 176l167 -176l-81 -959l-197 -176l-168 176z" />
    <glyph glyph-name="K" unicode="K" horiz-adv-x="3224" 
d="M1274 2896l196 176l168 -184l-102 -1143l-201 -176l-159 176zM1561 1712h999l160 -176l-193 -184h-991l-168 184zM2560 1319l193 176l167 -176l-102 -1135l-192 -184l-160 176zM1135 1319l200 184l168 -184l-102 -1135l-201 -184l-168 184zM2810 3072h262l-25 -270
l-1192 -1041h-278l33 254z" />
    <glyph glyph-name="L" unicode="L" horiz-adv-x="2793" 
d="M1192 1352l201 176l168 -176l-91 -951l-389 -360zM1503 369h991l168 -185l-196 -176h-1356zM1327 2896l201 176l160 -176l-95 -1184l-200 -176l-168 176z" />
    <glyph glyph-name="M" unicode="M" horiz-adv-x="3207" 
d="M2662 2712h-991l-168 184l201 176h991l160 -176zM2839 176l-193 -176l-168 176l107 1176l192 184l168 -176zM1425 193l-200 -185l-168 185l102 1175l193 176l168 -176zM2978 1712l-201 -176l-160 176l78 959l193 176l168 -176zM2281 1888l-192 -176l-168 184l70 766h360z
M1552 1729l-192 -177l-168 177l82 950l196 184l168 -176z" />
    <glyph glyph-name="N" unicode="N" horiz-adv-x="3592" 
d="M1602 2896l196 176l168 -176l-102 -1184l-201 -176l-168 176zM3056 2888l200 184l168 -184l-102 -1176l-201 -184l-168 184zM1462 1352l201 176l168 -176l-102 -1168l-201 -184l-160 184zM2920 1343l201 185l168 -185l-106 -1159l-193 -184l-168 176zM1982 2626l25 270
h217l713 -914l-33 -270h-209z" />
    <glyph glyph-name="O" unicode="O" horiz-adv-x="3199" 
d="M1135 1352l200 184l168 -184l-86 -959l-200 -176l-160 176zM2568 1352l193 184l168 -184l-90 -959l-193 -176l-168 176zM1257 2679l197 184l164 -184l-82 -959l-201 -184l-168 176zM2679 2679l200 176l168 -176l-86 -967l-200 -176l-160 176zM1450 360h991l168 -176
l-201 -184h-991l-168 184zM1679 3072h1000l160 -176l-193 -184h-991l-168 184z" />
    <glyph glyph-name="P" unicode="P" 
d="M2679 3072l160 -184l-193 -185h-991l-336 369h1360zM1286 3039l336 -368l-78 -926l-201 -176l-167 176zM1569 1712h991l168 -176l-201 -184h-991l-160 184zM1143 1319l192 184l168 -184l-102 -1135l-193 -184l-168 176zM2679 2671l192 176l168 -176l-78 -926l-200 -184
l-168 184z" />
    <glyph glyph-name="Q" unicode="Q" horiz-adv-x="3199" 
d="M1143 1352l192 184l168 -184l-86 -959l-200 -176l-160 176zM2568 1352l193 184l168 -184l-66 -688l-201 -177l-159 177zM1257 2679l197 184l164 -184l-82 -959l-201 -184l-168 176zM2679 2679l200 176l168 -176l-86 -967l-200 -176l-168 176zM1450 360h717l160 -176
l-193 -184h-717l-168 184zM1679 3072h1000l160 -176l-193 -184h-991l-168 184zM2167 430l33 225h233l389 -397l-20 -258h-242z" />
    <glyph glyph-name="R" unicode="R" 
d="M1528 1065l16 238h254l1032 -1070l-20 -233h-258zM2679 2671l192 184l168 -184l-78 -926l-200 -184l-168 184zM1143 1327l192 176l168 -184l-102 -1135l-193 -184l-168 176zM1569 1712h999l160 -176l-201 -184h-991l-160 184zM1286 3039l336 -360l-78 -926l-201 -184
l-167 176zM2679 3072l160 -184l-193 -185h-991l-336 369h1360z" />
    <glyph glyph-name="S" unicode="S" horiz-adv-x="3064" 
d="M1450 360h991l168 -176l-201 -184h-991l-168 184zM2560 1319l193 184l167 -184l-81 -926l-197 -176l-168 176zM1561 1720h999l160 -184l-193 -184h-999l-160 184zM1257 2679l193 176l168 -176l-82 -926l-201 -184l-168 176zM1679 3072h1000l160 -184l-197 -176h-995
l-168 176z" />
    <glyph glyph-name="T" unicode="T" horiz-adv-x="2912" 
d="M1159 3072h1450l168 -176l-192 -184h-1459l-168 184zM1671 2662h361l-86 -950l-193 -184l-168 184zM1552 1343l201 185l160 -185l-98 -1159l-197 -184l-168 176z" />
    <glyph glyph-name="U" unicode="U" horiz-adv-x="3207" 
d="M2560 1343l193 185l167 -185l-81 -950l-197 -184l-168 184zM1135 1352l200 176l160 -176l-78 -959l-200 -176l-160 176zM2687 2888l201 184l168 -184l-103 -1176l-200 -184l-168 184zM1274 2896l196 176l160 -184l-102 -1176l-193 -184l-168 184zM1450 360h991l168 -176
l-201 -184h-991l-168 184z" />
    <glyph glyph-name="V" unicode="V" horiz-adv-x="3088" 
d="M1274 2896l196 176l168 -176l-102 -1184l-201 -176l-168 176zM2585 2888l200 184l160 -184l-98 -1176l-201 -184l-168 184zM1135 1352l200 176l168 -176l-102 -1176l-201 -176l-160 176zM2601 1282l-1151 -1057l37 529l848 774h266v-246z" />
    <glyph glyph-name="W" unicode="W" horiz-adv-x="3207" 
d="M1450 360h991l168 -176l-201 -184h-991l-168 184zM1274 2896l188 176l168 -184l-102 -1176l-193 -184l-168 184zM2687 2888l201 184l168 -184l-103 -1176l-192 -184l-168 184zM1135 1352l200 176l160 -176l-78 -959l-200 -176l-160 176zM1823 1184l200 184l168 -184
l-69 -774h-361zM2560 1343l193 185l167 -185l-81 -950l-197 -184l-168 184z" />
    <glyph glyph-name="X" unicode="X" horiz-adv-x="2408" 
d="M250 377l758 1134h225l-33 -335l-762 -1176h-213zM1311 1896l762 1176h225l-33 -369l-778 -1142h-201zM1249 1176l33 335h197l577 -1175l-33 -336h-200zM455 2728l32 344h201l586 -1184l-33 -327h-225z" />
    <glyph glyph-name="Y" unicode="Y" 
d="M1544 1712h1000l159 -176l-192 -184h-991l-168 184zM2544 1319l192 176l168 -176l-82 -926l-196 -184l-168 184zM2679 2888l192 184l168 -184l-102 -1143l-193 -184l-168 184zM1257 2896l197 176l164 -184l-98 -1143l-201 -176l-168 176zM1434 360h991l168 -176
l-201 -184h-991l-168 184z" />
    <glyph glyph-name="Z" unicode="Z" horiz-adv-x="3367" 
d="M1585 3072h1454l168 -176l-192 -184h-1463l-168 184zM1319 352h1458l168 -184l-192 -184h-1467l-168 184zM1913 1487l254 33l33 -246l-656 -881h-225v303zM2425 1561l-258 -33l-37 250l663 884h222v-303z" />
    <glyph glyph-name="bracketleft" unicode="[" horiz-adv-x="2200" 
d="M1929 3072l168 -184l-201 -185h-118l-336 369h487zM1409 3039l336 -368l-90 -951l-193 -184l-168 176zM1266 1360l196 176l168 -184l-86 -959l-393 -352zM1569 360h127l159 -176l-192 -184h-479z" />
    <glyph glyph-name="backslash" unicode="\" horiz-adv-x="2023" 
d="M1106 3072l823 -3072h-377l-823 3072h377z" />
    <glyph glyph-name="bracketright" unicode="]" horiz-adv-x="2200" 
d="M1311 0l-160 184l192 185h119l336 -369h-487zM1831 41l-328 360l82 959l201 184l160 -184zM1974 1720l-188 -176l-168 176l86 967l393 360zM1671 2720h-119l-168 176l201 184h479z" />
    <glyph glyph-name="asciicircum" unicode="^" horiz-adv-x="1569" 
d="M913 3072h238l344 -680h-336l-127 320l-143 -320h-320z" />
    <glyph glyph-name="underscore" unicode="_" horiz-adv-x="3289" 
d="M1561 -66h1417l160 -135l-185 -135h-1425l-160 135z" />
    <glyph glyph-name="grave" unicode="`" horiz-adv-x="1425" 
d="M1024 3072l336 -471h-287l-344 471h295z" />
    <glyph glyph-name="a" unicode="a" 
d="M1688 3072h991l168 -184l-201 -176h-991l-168 176zM1257 2679l197 184l168 -184l-78 -926l-201 -184l-167 184zM2679 2679l200 176l160 -176l-78 -934l-192 -176l-168 176zM1569 1720h999l160 -184l-201 -184h-991l-160 184zM2560 1319l201 184l168 -184l-107 -1135
l-188 -184l-168 176zM1143 1327l200 176l160 -176l-102 -1143l-193 -184l-168 184z" />
    <glyph glyph-name="b" unicode="b" horiz-adv-x="2777" 
d="M2290 3072l159 -184l-192 -185h-991l-336 369h1360zM897 3039l336 -368l-90 -926l-193 -176l-168 176zM1176 1712h991l168 -176l-201 -184h-991l-168 184zM2167 1319l200 176l160 -176l-78 -926l-192 -184l-168 184zM745 1319l197 184l168 -184l-78 -926l-401 -352z
M1057 360h999l160 -176l-201 -184h-1351zM2281 2671l197 176l168 -176l-78 -926l-201 -184l-167 184z" />
    <glyph glyph-name="c" unicode="c" horiz-adv-x="2998" 
d="M1159 1352l201 184l168 -184l-86 -959l-201 -176l-160 176zM1282 2679l188 184l168 -184l-86 -959l-192 -184l-168 176zM1470 360h996l168 -176l-201 -184h-991l-168 184zM1704 3072h999l160 -176l-201 -184h-991l-160 184z" />
    <glyph glyph-name="d" unicode="d" 
d="M2679 3072l168 -184l-201 -185h-991l-328 369h1352zM1286 3039l336 -368l-78 -951l-201 -184l-167 176zM2560 1360l201 176l168 -176l-90 -967l-193 -184l-168 184zM1143 1360l200 176l168 -184l-86 -959l-393 -352zM1454 360h995l160 -176l-192 -184h-1352zM2679 2671
l192 176l168 -176l-78 -934l-200 -193l-160 193z" />
    <glyph glyph-name="e" unicode="e" horiz-adv-x="2990" 
d="M1470 360h1004l160 -176l-201 -184h-1352zM1159 1319l201 184l168 -184l-78 -926l-401 -352zM1593 1712h992l168 -176l-201 -184h-991l-168 184zM2695 3072l160 -184l-193 -185h-991l-336 369h1360zM1303 3039l327 -368l-78 -926l-192 -176l-168 176z" />
    <glyph glyph-name="f" unicode="f" horiz-adv-x="2990" 
d="M1159 1319l201 184l168 -184l-103 -1135l-200 -184l-160 176zM1593 1712h992l159 -176l-192 -184h-991l-168 184zM1303 3039l327 -368l-78 -926l-192 -176l-168 176zM2695 3072l160 -184l-193 -185h-991l-344 369h1368z" />
    <glyph glyph-name="g" unicode="g" horiz-adv-x="3105" 
d="M1151 1352l192 184l168 -184l-86 -959l-192 -176l-168 176zM1266 2679l196 184l168 -184l-86 -959l-201 -184l-159 176zM1454 360h1004l159 -176l-200 -184h-992l-159 184zM1696 3072h991l168 -176l-201 -184h-991l-168 184zM2359 1712h570l-394 -360h-208l-168 200z
M2568 1319l393 360l-114 -1286l-201 -184l-160 184z" />
    <glyph glyph-name="h" unicode="h" horiz-adv-x="3207" 
d="M1274 2896l196 176l168 -184l-102 -1143l-193 -176l-167 176zM2695 2896l201 176l160 -184l-103 -1143l-192 -176l-168 176zM1569 1712h991l168 -176l-201 -184h-991l-168 184zM2560 1319l193 176l167 -176l-98 -1135l-196 -184l-160 176zM1143 1319l192 184l168 -184
l-102 -1135l-201 -184l-160 184z" />
    <glyph glyph-name="i" unicode="i" horiz-adv-x="1622" 
d="M1192 2879l192 185l168 -185l-102 -1175l-193 -184l-167 176zM1057 1343l200 177l160 -185l-98 -1167l-201 -176l-168 176z" />
    <glyph glyph-name="j" unicode="j" horiz-adv-x="3207" 
d="M1450 360h991l168 -176l-201 -184h-991l-168 184zM2687 2888l201 184l168 -184l-103 -1176l-192 -184l-168 184zM1135 1352l200 176l160 -176l-78 -959l-200 -176l-160 176zM2560 1352l193 176l167 -176l-81 -959l-197 -176l-168 176z" />
    <glyph glyph-name="k" unicode="k" horiz-adv-x="3224" 
d="M1274 2896l196 176l168 -184l-102 -1143l-201 -176l-159 176zM1561 1712h999l160 -176l-193 -184h-991l-168 184zM2560 1319l193 176l167 -176l-102 -1135l-192 -184l-160 176zM1135 1319l200 184l168 -184l-102 -1135l-201 -184l-168 184zM2810 3072h262l-25 -270
l-1192 -1041h-278l33 254z" />
    <glyph glyph-name="l" unicode="l" horiz-adv-x="2793" 
d="M1192 1352l201 176l168 -176l-91 -951l-389 -360zM1503 369h991l168 -185l-196 -176h-1356zM1327 2896l201 176l160 -176l-95 -1184l-200 -176l-168 176z" />
    <glyph glyph-name="m" unicode="m" horiz-adv-x="3207" 
d="M2662 2712h-991l-168 184l201 176h991l160 -176zM2839 176l-193 -176l-168 176l107 1176l192 184l168 -176zM1425 193l-200 -185l-168 185l102 1175l193 176l168 -176zM2978 1712l-201 -176l-160 176l78 959l193 176l168 -176zM2281 1888l-192 -176l-168 184l70 766h360z
M1552 1729l-192 -177l-168 177l82 950l196 184l168 -176z" />
    <glyph glyph-name="n" unicode="n" horiz-adv-x="3592" 
d="M1602 2896l196 176l168 -176l-102 -1184l-201 -176l-168 176zM3056 2888l200 184l168 -184l-102 -1176l-201 -184l-168 184zM1462 1352l201 176l168 -176l-102 -1168l-201 -184l-160 184zM2920 1343l201 185l168 -185l-106 -1159l-193 -184l-168 176zM1982 2626l25 270
h217l713 -914l-33 -270h-209z" />
    <glyph glyph-name="o" unicode="o" horiz-adv-x="3199" 
d="M1135 1352l200 184l168 -184l-86 -959l-200 -176l-160 176zM2568 1352l193 184l168 -184l-90 -959l-193 -176l-168 176zM1257 2679l197 184l164 -184l-82 -959l-201 -184l-168 176zM2679 2679l200 176l168 -176l-86 -967l-200 -176l-160 176zM1450 360h991l168 -176
l-201 -184h-991l-168 184zM1679 3072h1000l160 -176l-193 -184h-991l-168 184z" />
    <glyph glyph-name="p" unicode="p" 
d="M2679 3072l160 -184l-193 -185h-991l-336 369h1360zM1286 3039l336 -368l-78 -926l-201 -176l-167 176zM1569 1712h991l168 -176l-201 -184h-991l-160 184zM1143 1319l192 184l168 -184l-102 -1135l-193 -184l-168 176zM2679 2671l192 176l168 -176l-78 -926l-200 -184
l-168 184z" />
    <glyph glyph-name="q" unicode="q" horiz-adv-x="3199" 
d="M1143 1352l192 184l168 -184l-86 -959l-200 -176l-160 176zM2568 1352l193 184l168 -184l-66 -688l-201 -177l-159 177zM1257 2679l197 184l164 -184l-82 -959l-201 -184l-168 176zM2679 2679l200 176l168 -176l-86 -967l-200 -176l-168 176zM1450 360h717l160 -176
l-193 -184h-717l-168 184zM1679 3072h1000l160 -176l-193 -184h-991l-168 184zM2167 430l33 225h233l389 -397l-20 -258h-242z" />
    <glyph glyph-name="r" unicode="r" 
d="M1528 1065l16 238h254l1032 -1070l-20 -233h-258zM2679 2671l192 184l168 -184l-78 -926l-200 -184l-168 184zM1143 1327l192 176l168 -184l-102 -1135l-193 -184l-168 176zM1569 1712h999l160 -176l-201 -184h-991l-160 184zM1286 3039l336 -360l-78 -926l-201 -184
l-167 176zM2679 3072l160 -184l-193 -185h-991l-336 369h1360z" />
    <glyph glyph-name="s" unicode="s" horiz-adv-x="3064" 
d="M1450 360h991l168 -176l-201 -184h-991l-168 184zM2560 1319l193 184l167 -184l-81 -926l-197 -176l-168 176zM1561 1720h999l160 -184l-193 -184h-999l-160 184zM1257 2679l193 176l168 -176l-82 -926l-201 -184l-168 176zM1679 3072h1000l160 -184l-197 -176h-995
l-168 176z" />
    <glyph glyph-name="t" unicode="t" horiz-adv-x="2912" 
d="M1159 3072h1450l168 -176l-192 -184h-1459l-168 184zM1671 2662h361l-86 -950l-193 -184l-168 184zM1552 1343l201 185l160 -185l-98 -1159l-197 -184l-168 176z" />
    <glyph glyph-name="u" unicode="u" horiz-adv-x="3207" 
d="M2560 1343l193 185l167 -185l-81 -950l-197 -184l-168 184zM1135 1352l200 176l160 -176l-78 -959l-200 -176l-160 176zM2687 2888l201 184l168 -184l-103 -1176l-200 -184l-168 184zM1274 2896l196 176l160 -184l-102 -1176l-193 -184l-168 184zM1450 360h991l168 -176
l-201 -184h-991l-168 184z" />
    <glyph glyph-name="v" unicode="v" horiz-adv-x="3088" 
d="M1274 2896l196 176l168 -176l-102 -1184l-201 -176l-168 176zM2585 2888l200 184l160 -184l-98 -1176l-201 -184l-168 184zM1135 1352l200 176l168 -176l-102 -1176l-201 -176l-160 176zM2601 1282l-1151 -1057l37 529l848 774h266v-246z" />
    <glyph glyph-name="w" unicode="w" horiz-adv-x="3207" 
d="M1450 360h991l168 -176l-201 -184h-991l-168 184zM1274 2896l188 176l168 -184l-102 -1176l-193 -184l-168 184zM2687 2888l201 184l168 -184l-103 -1176l-192 -184l-168 184zM1135 1352l200 176l160 -176l-78 -959l-200 -176l-160 176zM1823 1184l200 184l168 -184
l-69 -774h-361zM2560 1343l193 185l167 -185l-81 -950l-197 -184l-168 184z" />
    <glyph glyph-name="x" unicode="x" horiz-adv-x="2408" 
d="M250 377l758 1134h225l-33 -335l-762 -1176h-213zM1311 1896l762 1176h225l-33 -369l-778 -1142h-201zM1249 1176l33 335h197l577 -1175l-33 -336h-200zM455 2728l32 344h201l586 -1184l-33 -327h-225z" />
    <glyph glyph-name="y" unicode="y" 
d="M1544 1712h1000l159 -176l-192 -184h-991l-168 184zM2544 1319l192 176l168 -176l-82 -926l-196 -184l-168 184zM2679 2888l192 184l168 -184l-102 -1143l-193 -184l-168 184zM1257 2896l197 176l164 -184l-98 -1143l-201 -176l-168 176zM1434 360h991l168 -176
l-201 -184h-991l-168 184z" />
    <glyph glyph-name="z" unicode="z" horiz-adv-x="3367" 
d="M1585 3072h1454l168 -176l-192 -184h-1463l-168 184zM1319 352h1458l168 -184l-192 -184h-1467l-168 184zM1913 1487l254 33l33 -246l-656 -881h-225v303zM2425 1561l-258 -33l-37 250l663 884h222v-303z" />
    <glyph glyph-name="braceleft" unicode="{" horiz-adv-x="2503" 
d="M1135 1720h122l168 -184l-200 -176h-119l-156 176zM1294 1360l193 176l168 -176l-86 -959l-193 -184l-168 176zM1409 2679l201 184l168 -184l-90 -959l-201 -184l-160 184zM1602 369h389l159 -185l-188 -176h-393l-160 176zM1831 3072h393l168 -184l-201 -176h-385
l-168 184z" />
    <glyph glyph-name="bar" unicode="|" horiz-adv-x="2998" 
d="M2503 2888l200 184l160 -184l-102 -1176l-193 -184l-168 176zM2367 1352l201 176l168 -185l-102 -1167l-193 -176l-168 176z" />
    <glyph glyph-name="braceright" unicode="}" horiz-adv-x="2503" 
d="M2208 1360h-119l-168 176l201 184h119l151 -184zM2048 1720l-193 -184l-167 184l90 959l188 176l168 -176zM1937 393l-200 -176l-168 176l86 967l200 176l160 -176zM1745 2712h-393l-168 184l200 176h394l159 -176zM1511 8h-393l-168 176l201 185h385l168 -185z" />
    <glyph glyph-name="exclamdown" unicode="&#xa1;" horiz-adv-x="1896" 
d="M1569 176l-193 -184l-159 184l94 1184l192 176l160 -176zM1696 1720l-193 -184l-160 184l66 766l193 176l159 -176zM1778 2712h-353l29 360h352z" />
    <glyph glyph-name="sterling" unicode="&#xa3;" horiz-adv-x="2978" 
d="M1655 3072h991l172 -184l-201 -176h-995l-168 176zM1225 2679l200 184l168 -184l-82 -926l-200 -184l-168 184zM1536 1720h999l160 -184l-201 -184h-991l-160 184zM2478 745l201 177l160 -177l-62 -712l-328 360zM1110 1327l193 176l167 -176l-77 -934l-394 -352z
M1417 360h1000l327 -360h-1712z" />
    <glyph glyph-name="dieresis" unicode="&#xa8;" horiz-adv-x="2408" 
d="M1462 3498h353l-29 -352h-352zM1937 3498h361l-33 -352h-352z" />
    <glyph glyph-name="guillemotleft" unicode="&#xab;" horiz-adv-x="2114" 
d="M1049 1552l454 -368l25 -295l-848 663l737 631l25 -303zM1528 1552l454 -368l33 -295l-856 663l737 631l25 -303z" />
    <glyph glyph-name="acute" unicode="&#xb4;" horiz-adv-x="1425" 
d="M1065 3072h295l-344 -471h-287z" />
    <glyph glyph-name="periodcentered" unicode="&#xb7;" horiz-adv-x="2298" 
d="M1839 1729h352l-32 -353h-353z" />
    <glyph glyph-name="cedilla" unicode="&#xb8;" horiz-adv-x="2216" 
d="M1815 -152h299l-345 -471h-290z" />
    <glyph glyph-name="ordmasculine" unicode="&#xba;" horiz-adv-x="1647" 
d="M856 2662h393l144 -168l-176 -159h-386l-151 159zM471 2306l176 168l152 -168l-45 -520l-176 -164l-152 164zM774 1761h393l144 -168l-176 -159h-381l-156 159zM1241 2306l184 160l152 -160l-49 -520l-185 -168l-151 168zM385 1343h1102l-33 -327h-1102z" />
    <glyph glyph-name="guillemotright" unicode="&#xbb;" horiz-adv-x="2105" 
d="M1638 1552l-381 328l25 303l725 -631l-848 -663l33 295zM1159 1552l-389 328l21 303l737 -631l-848 -663l25 295z" />
    <glyph glyph-name="questiondown" unicode="&#xbf;" horiz-adv-x="3199" 
d="M2384 0h-991l-168 184l200 185h992l168 -185zM2503 1360h-992l-168 176l201 184h991l160 -184zM1393 401l-193 -184l-168 184l78 926l201 184l159 -184zM3015 2712h-369l33 360h368zM2945 1761l-209 -184l-160 176l58 733l196 176l168 -176z" />
    <glyph glyph-name="Agrave" unicode="&#xc0;" 
d="M1671 3080h991l168 -184l-196 -176h-996l-168 176zM1241 2687l201 184l168 -184l-82 -926l-201 -184l-168 184zM2662 2687l201 176l160 -176l-78 -934l-192 -176l-168 176zM1552 1729h1000l160 -185l-201 -184h-991l-160 184zM2544 1327l200 184l168 -184l-102 -1134
l-193 -185l-168 176zM1126 1335l201 176l160 -176l-103 -1142l-192 -185l-168 185zM2064 3686l336 -471h-286l-345 471h295z" />
    <glyph glyph-name="Aacute" unicode="&#xc1;" 
d="M1671 3080h991l168 -184l-196 -176h-996l-168 176zM1241 2687l201 184l168 -184l-82 -926l-201 -184l-168 184zM2662 2687l201 176l160 -176l-78 -934l-192 -176l-168 176zM1552 1729h1000l160 -185l-201 -184h-991l-160 184zM2544 1327l200 184l168 -184l-102 -1134
l-193 -185l-168 176zM1126 1335l201 176l160 -176l-103 -1142l-192 -185l-168 185zM2351 3785h295l-340 -471h-291z" />
    <glyph glyph-name="Acircumflex" unicode="&#xc2;" 
d="M1671 3080h991l168 -184l-196 -176h-996l-168 176zM1241 2687l201 184l168 -184l-82 -926l-201 -184l-168 184zM2662 2687l201 176l160 -176l-78 -934l-192 -176l-168 176zM1552 1729h1000l160 -185l-201 -184h-991l-160 184zM2544 1327l200 184l168 -184l-102 -1134
l-193 -185l-168 176zM1126 1335l201 176l160 -176l-103 -1142l-192 -185l-168 185zM2089 3686h229l336 -335h-336l-118 122l-111 -122h-336z" />
    <glyph glyph-name="Atilde" unicode="&#xc3;" 
d="M1688 3072h991l168 -184l-201 -176h-991l-168 176zM1257 2679l197 184l168 -184l-78 -926l-201 -184l-167 184zM2679 2679l200 176l160 -176l-78 -934l-192 -176l-168 176zM1569 1720h999l160 -184l-201 -184h-991l-160 184zM2560 1319l201 184l168 -184l-107 -1135
l-188 -184l-168 176zM1143 1327l200 176l160 -176l-102 -1143l-193 -184l-168 184zM2425 3510l102 107h266l-290 -336h-176l-119 119l-111 -119h-336l336 336h230z" />
    <glyph glyph-name="Adieresis" unicode="&#xc4;" 
d="M1671 3080h991l168 -184l-196 -176h-996l-168 176zM1241 2687l201 184l168 -184l-82 -926l-201 -184l-168 184zM2662 2687l201 176l160 -176l-78 -934l-192 -176l-168 176zM1552 1729h1000l160 -185l-201 -184h-991l-160 184zM2544 1327l200 184l168 -184l-102 -1134
l-193 -185l-168 176zM1126 1335l201 176l160 -176l-103 -1142l-192 -185l-168 185zM1815 3658h352l-33 -353h-348zM2290 3658h356l-29 -353h-352z" />
    <glyph glyph-name="Aring" unicode="&#xc5;" 
d="M1671 3080h991l168 -184l-196 -176h-996l-168 176zM1241 2687l201 184l168 -184l-82 -926l-201 -184l-168 184zM2662 2687l201 176l160 -176l-78 -934l-192 -176l-168 176zM1552 1729h1000l160 -185l-201 -184h-991l-160 184zM2544 1327l200 184l168 -184l-102 -1134
l-193 -185l-168 176zM1126 1335l201 176l160 -176l-103 -1142l-192 -185l-168 185zM1982 3641h345l-29 -336h-336zM2097 3527l-8 -111h102l9 111h-103z" />
    <glyph glyph-name="AE" unicode="&#xc6;" horiz-adv-x="4329" 
d="M2855 1712h999l160 -176l-197 -184h-995l-160 184zM2433 1319l193 184l167 -184l-81 -926l-394 -352zM2744 360h992l167 -176l-200 -184h-1352zM1552 3072h1000l160 -184l-201 -176h-991l-160 176zM2970 3072h999l160 -184l-193 -185h-991l-168 185zM1126 2679l193 176
l168 -176l-78 -926l-201 -184l-168 184zM2544 2679l200 176l168 -176l-90 -926l-188 -184l-168 176zM1434 1720h999l160 -184l-193 -176h-991l-168 176zM1008 1327l200 176l168 -176l-102 -1143l-201 -176l-168 176z" />
    <glyph glyph-name="Ccedilla" unicode="&#xc7;" horiz-adv-x="3023" 
d="M1815 -152h299l-345 -471h-290zM1159 1352l201 184l168 -184l-86 -959l-201 -176l-160 176zM1282 2679l188 184l168 -184l-86 -959l-192 -184l-168 176zM1470 360h996l168 -176l-201 -184h-991l-168 184zM1704 3072h999l160 -176l-201 -184h-991l-160 184z" />
    <glyph glyph-name="Egrave" unicode="&#xc8;" horiz-adv-x="2990" 
d="M1454 369h1004l159 -176l-200 -185h-1352zM1143 1327l200 184l168 -184l-77 -926l-402 -352zM1577 1720h991l168 -176l-201 -184h-991l-168 184zM2679 3080l160 -184l-193 -184h-991l-336 368h1360zM1286 3047l332 -368l-82 -926l-193 -176l-167 176zM2023 3777l336 -472
h-286l-344 472h294z" />
    <glyph glyph-name="Eacute" unicode="&#xc9;" horiz-adv-x="2990" 
d="M1454 369h1004l159 -176l-200 -185h-1352zM1143 1327l200 184l168 -184l-77 -926l-402 -352zM1577 1720h991l168 -176l-201 -184h-991l-168 184zM2679 3080l160 -184l-193 -184h-991l-336 368h1360zM1286 3047l332 -368l-82 -926l-193 -176l-167 176zM2064 3777h295
l-344 -472h-286z" />
    <glyph glyph-name="Ecircumflex" unicode="&#xca;" horiz-adv-x="2990" 
d="M1454 369h1004l159 -176l-200 -185h-1352zM1143 1327l200 184l168 -184l-77 -926l-402 -352zM1577 1720h991l168 -176l-201 -184h-991l-168 184zM2679 3080l160 -184l-193 -184h-991l-336 368h1360zM1286 3047l332 -368l-82 -926l-193 -176l-167 176zM1913 3641h229
l336 -336h-336l-119 119l-110 -119h-336z" />
    <glyph glyph-name="Edieresis" unicode="&#xcb;" horiz-adv-x="2990" 
d="M1454 369h1004l159 -176l-200 -185h-1352zM1143 1327l200 184l168 -184l-77 -926l-402 -352zM1577 1720h991l168 -176l-201 -184h-991l-168 184zM2679 3080l160 -184l-193 -184h-991l-336 368h1360zM1286 3047l332 -368l-82 -926l-193 -176l-167 176zM1720 3658h353
l-33 -353h-352zM2191 3658h361l-33 -353h-352z" />
    <glyph glyph-name="Igrave" unicode="&#xcc;" horiz-adv-x="1720" 
d="M1192 2888l192 184l168 -184l-102 -1176l-193 -184l-167 176zM1057 1352l200 176l160 -185l-98 -1167l-201 -176l-168 176zM1303 3777l335 -472h-286l-344 472h295z" />
    <glyph glyph-name="Iacute" unicode="&#xcd;" horiz-adv-x="1954" 
d="M1192 2888l192 184l168 -184l-102 -1176l-193 -184l-167 176zM1057 1352l200 176l160 -185l-98 -1167l-201 -176l-168 176zM1569 3777h295l-344 -472h-287z" />
    <glyph glyph-name="Icircumflex" unicode="&#xce;" horiz-adv-x="1937" 
d="M1192 2888l192 184l168 -184l-102 -1176l-193 -184l-167 176zM1057 1352l200 176l160 -185l-98 -1167l-201 -176l-168 176zM1282 3633h229l336 -336h-336l-118 119l-111 -119h-340z" />
    <glyph glyph-name="Idieresis" unicode="&#xcf;" horiz-adv-x="2408" 
d="M1192 2888l192 184l168 -184l-102 -1176l-193 -184l-167 176zM1057 1352l200 176l160 -185l-98 -1167l-201 -176l-168 176zM1024 3633h352l-33 -352h-352zM1495 3633h360l-32 -352h-353z" />
    <glyph glyph-name="Ntilde" unicode="&#xd1;" horiz-adv-x="3592" 
d="M1602 2896l196 176l168 -176l-102 -1184l-201 -176l-168 176zM3056 2888l200 184l168 -184l-102 -1176l-201 -184l-168 184zM1462 1352l201 176l168 -176l-102 -1168l-201 -184l-160 184zM2920 1343l201 185l168 -185l-106 -1159l-193 -184l-168 176zM1982 2626l25 270
h217l713 -914l-33 -270h-209zM2802 3502l102 107h262l-287 -336h-176l-118 118l-111 -118h-340l340 336h229z" />
    <glyph glyph-name="Ograve" unicode="&#xd2;" horiz-adv-x="3199" 
d="M1118 1360l201 184l168 -184l-86 -959l-201 -176l-160 176zM2552 1360l192 184l168 -184l-90 -959l-188 -176l-168 176zM1241 2687l201 184l160 -184l-82 -958l-201 -185l-168 176zM2662 2687l201 176l168 -176l-86 -967l-201 -176l-159 176zM1434 369h991l168 -176
l-201 -185h-991l-168 185zM1663 3080h999l160 -176l-188 -184h-996l-168 184zM2142 3777l336 -472h-287l-344 472h295z" />
    <glyph glyph-name="Oacute" unicode="&#xd3;" horiz-adv-x="3199" 
d="M1118 1360l201 184l168 -184l-86 -959l-201 -176l-160 176zM2552 1360l192 184l168 -184l-90 -959l-188 -176l-168 176zM1241 2687l201 184l160 -184l-82 -958l-201 -185l-168 176zM2662 2687l201 176l168 -176l-86 -967l-201 -176l-159 176zM1434 369h991l168 -176
l-201 -185h-991l-168 185zM1663 3080h999l160 -176l-188 -184h-996l-168 184zM2257 3777h295l-344 -472h-287z" />
    <glyph glyph-name="Ocircumflex" unicode="&#xd4;" horiz-adv-x="3199" 
d="M1118 1360l201 184l168 -184l-86 -959l-201 -176l-160 176zM2552 1360l192 184l168 -184l-90 -959l-188 -176l-168 176zM1241 2687l201 184l160 -184l-82 -958l-201 -185l-168 176zM2662 2687l201 176l168 -176l-86 -967l-201 -176l-159 176zM1434 369h991l168 -176
l-201 -185h-991l-168 185zM1663 3080h999l160 -176l-188 -184h-996l-168 184zM2114 3641h229l336 -336h-336l-119 119l-110 -119h-336z" />
    <glyph glyph-name="Otilde" unicode="&#xd5;" horiz-adv-x="3199" 
d="M1135 1352l200 184l168 -184l-86 -959l-200 -176l-160 176zM2568 1352l193 184l168 -184l-90 -959l-193 -176l-168 176zM1257 2679l197 184l164 -184l-82 -959l-201 -184l-168 176zM2679 2679l200 176l168 -176l-86 -967l-200 -176l-160 176zM1450 360h991l168 -176
l-201 -184h-991l-168 184zM1679 3072h1000l160 -176l-193 -184h-991l-168 184zM2425 3510l102 107h266l-290 -336h-176l-119 119l-111 -119h-336l336 336h230z" />
    <glyph glyph-name="Odieresis" unicode="&#xd6;" horiz-adv-x="3199" 
d="M1118 1360l201 184l168 -184l-86 -959l-201 -176l-160 176zM2552 1360l192 184l168 -184l-90 -959l-188 -176l-168 176zM1241 2687l201 184l160 -184l-82 -958l-201 -185l-168 176zM2662 2687l201 176l168 -176l-86 -967l-201 -176l-159 176zM1434 369h991l168 -176
l-201 -185h-991l-168 185zM1663 3080h999l160 -176l-188 -184h-996l-168 184zM1823 3658h352l-33 -353h-348zM2298 3658h356l-28 -353h-353z" />
    <glyph glyph-name="Oslash" unicode="&#xd8;" horiz-adv-x="3097" 
d="M1049 1352l200 184l168 -184l-90 -959l-201 -176l-159 176zM2474 1352l197 184l159 -184l-77 -959l-201 -176l-168 176zM1167 2679l201 176l160 -176l-78 -967l-201 -176l-168 176zM2593 2679l192 176l168 -176l-90 -967l-192 -176l-168 176zM1360 360h991l160 -176
l-193 -184h-991l-168 184zM1593 3072h992l168 -184l-201 -176h-991l-160 176zM2343 2662h201l-41 -479l-926 -1773h-201l41 471z" />
    <glyph glyph-name="Ugrave" unicode="&#xd9;" horiz-adv-x="3207" 
d="M2544 1352l192 184l168 -184l-82 -951l-196 -184l-168 184zM1118 1360l201 176l160 -176l-78 -959l-201 -176l-160 176zM2671 2896l200 184l168 -184l-102 -1176l-201 -184l-168 184zM1257 2904l197 176l164 -184l-107 -1176l-192 -184l-168 184zM1434 369h991l168 -176
l-201 -185h-991l-168 185zM2130 3777l336 -472h-291l-344 472h299z" />
    <glyph glyph-name="Uacute" unicode="&#xda;" horiz-adv-x="3207" 
d="M2544 1352l192 184l168 -184l-82 -951l-196 -184l-168 184zM1118 1360l201 176l160 -176l-78 -959l-201 -176l-160 176zM2671 2896l200 184l168 -184l-102 -1176l-201 -184l-168 184zM1257 2904l197 176l164 -184l-107 -1176l-192 -184l-168 184zM1434 369h991l168 -176
l-201 -185h-991l-168 185zM2257 3777h295l-344 -472h-287z" />
    <glyph glyph-name="Ucircumflex" unicode="&#xdb;" horiz-adv-x="3207" 
d="M2544 1352l192 184l168 -184l-82 -951l-196 -184l-168 184zM1118 1360l201 176l160 -176l-78 -959l-201 -176l-160 176zM2671 2896l200 184l168 -184l-102 -1176l-201 -184l-168 184zM1257 2904l197 176l164 -184l-107 -1176l-192 -184l-168 184zM1434 369h991l168 -176
l-201 -185h-991l-168 185zM2081 3641h229l336 -336h-336l-119 119l-110 -119h-336z" />
    <glyph glyph-name="Udieresis" unicode="&#xdc;" horiz-adv-x="3207" 
d="M2544 1352l192 184l168 -184l-82 -951l-196 -184l-168 184zM1118 1360l201 176l160 -176l-78 -959l-201 -176l-160 176zM2671 2896l200 184l168 -184l-102 -1176l-201 -184l-168 184zM1257 2904l197 176l164 -184l-107 -1176l-192 -184l-168 184zM1434 369h991l168 -176
l-201 -185h-991l-168 185zM1847 3658h353l-33 -353h-352zM2318 3658h361l-33 -353h-348z" />
    <glyph glyph-name="Yacute" unicode="&#xdd;" 
d="M1528 1720h999l160 -176l-193 -184h-991l-168 184zM2527 1327l193 176l168 -176l-78 -926l-201 -184l-168 184zM2662 2896l193 184l168 -184l-103 -1143l-192 -184l-168 184zM1241 2904l201 176l160 -184l-99 -1143l-200 -176l-168 176zM1417 369h991l168 -176l-200 -185
h-992l-167 185zM2417 3777h295l-345 -472h-286z" />
    <glyph glyph-name="germandbls" unicode="&#xdf;" 
d="M2679 3072l168 -184l-201 -185h-991l-328 369h1352zM1286 3039l336 -368l-78 -926l-201 -176l-167 176zM1823 1712h745l160 -176l-201 -184h-741l-164 176zM2560 1319l201 176l168 -176l-90 -926l-193 -184l-168 184zM1143 1319l192 184l168 -184l-78 -926l-393 -352z
M2056 360h393l160 -176l-192 -184h-754zM2679 2671l192 176l168 -176l-78 -926l-200 -184l-168 184z" />
    <glyph glyph-name="agrave" unicode="&#xe0;" 
d="M1671 3080h991l168 -184l-196 -176h-996l-168 176zM1241 2687l201 184l168 -184l-82 -926l-201 -184l-168 184zM2662 2687l201 176l160 -176l-78 -934l-192 -176l-168 176zM1552 1729h1000l160 -185l-201 -184h-991l-160 184zM2544 1327l200 184l168 -184l-102 -1134
l-193 -185l-168 176zM1126 1335l201 176l160 -176l-103 -1142l-192 -185l-168 185zM2130 3777l336 -472h-291l-344 472h299z" />
    <glyph glyph-name="aacute" unicode="&#xe1;" 
d="M1671 3080h991l168 -184l-196 -176h-996l-168 176zM1241 2687l201 184l168 -184l-82 -926l-201 -184l-168 184zM2662 2687l201 176l160 -176l-78 -934l-192 -176l-168 176zM1552 1729h1000l160 -185l-201 -184h-991l-160 184zM2544 1327l200 184l168 -184l-102 -1134
l-193 -185l-168 176zM1126 1335l201 176l160 -176l-103 -1142l-192 -185l-168 185zM2183 3777h295l-344 -472h-287z" />
    <glyph glyph-name="acircumflex" unicode="&#xe2;" 
d="M1671 3080h991l168 -184l-196 -176h-996l-168 176zM1241 2687l201 184l168 -184l-82 -926l-201 -184l-168 184zM2662 2687l201 176l160 -176l-78 -934l-192 -176l-168 176zM1552 1729h1000l160 -185l-201 -184h-991l-160 184zM2544 1327l200 184l168 -184l-102 -1134
l-193 -185l-168 176zM1126 1335l201 176l160 -176l-103 -1142l-192 -185l-168 185zM2023 3641h234l336 -336h-336l-123 119l-111 -119h-335z" />
    <glyph glyph-name="atilde" unicode="&#xe3;" 
d="M1688 3072h991l168 -184l-201 -176h-991l-168 176zM1257 2679l197 184l168 -184l-78 -926l-201 -184l-167 184zM2679 2679l200 176l160 -176l-78 -934l-192 -176l-168 176zM1569 1720h999l160 -184l-201 -184h-991l-160 184zM2560 1319l201 184l168 -184l-107 -1135
l-188 -184l-168 176zM1143 1327l200 176l160 -176l-102 -1143l-193 -184l-168 184zM2425 3510l102 107h266l-290 -336h-176l-119 119l-111 -119h-336l336 336h230z" />
    <glyph glyph-name="adieresis" unicode="&#xe4;" 
d="M1671 3080h991l168 -184l-196 -176h-996l-168 176zM1241 2687l201 184l168 -184l-82 -926l-201 -184l-168 184zM2662 2687l201 176l160 -176l-78 -934l-192 -176l-168 176zM1552 1729h1000l160 -185l-201 -184h-991l-160 184zM2544 1327l200 184l168 -184l-102 -1134
l-193 -185l-168 176zM1126 1335l201 176l160 -176l-103 -1142l-192 -185l-168 185zM1839 3658h352l-32 -353h-353zM2310 3658h361l-29 -353h-352z" />
    <glyph glyph-name="aring" unicode="&#xe5;" 
d="M1671 3080h991l168 -184l-196 -176h-996l-168 176zM1241 2687l201 184l168 -184l-82 -926l-201 -184l-168 184zM2662 2687l201 176l160 -176l-78 -934l-192 -176l-168 176zM1552 1729h1000l160 -185l-201 -184h-991l-160 184zM2544 1327l200 184l168 -184l-102 -1134
l-193 -185l-168 176zM1126 1335l201 176l160 -176l-103 -1142l-192 -185l-168 185zM1982 3641h345l-29 -336h-336zM2097 3527l-8 -111h102l9 111h-103z" />
    <glyph glyph-name="ae" unicode="&#xe6;" horiz-adv-x="4329" 
d="M2855 1712h999l160 -176l-197 -184h-995l-160 184zM2433 1319l193 184l167 -184l-81 -926l-394 -352zM2744 360h992l167 -176l-200 -184h-1352zM1552 3072h1000l160 -184l-201 -176h-991l-160 176zM2970 3072h999l160 -184l-193 -185h-991l-168 185zM1126 2679l193 176
l168 -176l-78 -926l-201 -184l-168 184zM2544 2679l200 176l168 -176l-90 -926l-188 -184l-168 176zM1434 1720h999l160 -184l-193 -176h-991l-168 176zM1008 1327l200 176l168 -176l-102 -1143l-201 -176l-168 176z" />
    <glyph glyph-name="ccedilla" unicode="&#xe7;" horiz-adv-x="2998" 
d="M1815 -152h299l-345 -471h-290zM1159 1352l201 184l168 -184l-86 -959l-201 -176l-160 176zM1282 2679l188 184l168 -184l-86 -959l-192 -184l-168 176zM1470 360h996l168 -176l-201 -184h-991l-168 184zM1704 3072h999l160 -176l-201 -184h-991l-160 184z" />
    <glyph glyph-name="egrave" unicode="&#xe8;" horiz-adv-x="2990" 
d="M1454 369h1004l159 -176l-200 -185h-1352zM1143 1327l200 184l168 -184l-77 -926l-402 -352zM1577 1720h991l168 -176l-201 -184h-991l-168 184zM2679 3080l160 -184l-193 -184h-991l-336 368h1360zM1286 3047l332 -368l-82 -926l-193 -176l-167 176zM2023 3777l336 -472
h-286l-344 472h294z" />
    <glyph glyph-name="eacute" unicode="&#xe9;" horiz-adv-x="2990" 
d="M1454 369h1004l159 -176l-200 -185h-1352zM1143 1327l200 184l168 -184l-77 -926l-402 -352zM1577 1720h991l168 -176l-201 -184h-991l-168 184zM2679 3080l160 -184l-193 -184h-991l-336 368h1360zM1286 3047l332 -368l-82 -926l-193 -176l-167 176zM2114 3777h294
l-344 -472h-286z" />
    <glyph glyph-name="ecircumflex" unicode="&#xea;" horiz-adv-x="2990" 
d="M1454 369h1004l159 -176l-200 -185h-1352zM1143 1327l200 184l168 -184l-77 -926l-402 -352zM1577 1720h991l168 -176l-201 -184h-991l-168 184zM2679 3080l160 -184l-193 -184h-991l-336 368h1360zM1286 3047l332 -368l-82 -926l-193 -176l-167 176zM1982 3641h234
l336 -336h-336l-119 119l-115 -119h-335z" />
    <glyph glyph-name="edieresis" unicode="&#xeb;" horiz-adv-x="2990" 
d="M1454 369h1004l159 -176l-200 -185h-1352zM1143 1327l200 184l168 -184l-77 -926l-402 -352zM1577 1720h991l168 -176l-201 -184h-991l-168 184zM2679 3080l160 -184l-193 -184h-991l-336 368h1360zM1286 3047l332 -368l-82 -926l-193 -176l-167 176zM1720 3658h353
l-33 -353h-352zM2191 3658h361l-33 -353h-352z" />
    <glyph glyph-name="igrave" unicode="&#xec;" horiz-adv-x="1679" 
d="M1192 2888l192 184l168 -184l-102 -1176l-193 -184l-167 176zM1057 1352l200 176l160 -185l-98 -1167l-201 -176l-168 176zM1266 3777l336 -472h-291l-344 472h299z" />
    <glyph glyph-name="iacute" unicode="&#xed;" horiz-adv-x="1954" 
d="M1192 2888l192 184l168 -184l-102 -1176l-193 -184l-167 176zM1057 1352l200 176l160 -185l-98 -1167l-201 -176l-168 176zM1569 3777h295l-344 -472h-287z" />
    <glyph glyph-name="icircumflex" unicode="&#xee;" horiz-adv-x="1937" 
d="M1192 2888l192 184l168 -184l-102 -1176l-193 -184l-167 176zM1057 1352l200 176l160 -185l-98 -1167l-201 -176l-168 176zM1282 3633h229l336 -336h-336l-118 119l-111 -119h-340z" />
    <glyph glyph-name="idieresis" unicode="&#xef;" horiz-adv-x="2408" 
d="M1192 2888l192 184l168 -184l-102 -1176l-193 -184l-167 176zM1057 1352l200 176l160 -185l-98 -1167l-201 -176l-168 176zM1024 3633h352l-33 -352h-352zM1495 3633h360l-32 -352h-353z" />
    <glyph glyph-name="ntilde" unicode="&#xf1;" horiz-adv-x="3592" 
d="M1602 2896l196 176l168 -176l-102 -1184l-201 -176l-168 176zM3056 2888l200 184l168 -184l-102 -1176l-201 -184l-168 184zM1462 1352l201 176l168 -176l-102 -1168l-201 -184l-160 184zM2920 1343l201 185l168 -185l-106 -1159l-193 -184l-168 176zM1982 2626l25 270
h217l713 -914l-33 -270h-209zM2802 3502l102 107h262l-287 -336h-176l-118 118l-111 -118h-340l340 336h229z" />
    <glyph glyph-name="ograve" unicode="&#xf2;" horiz-adv-x="3199" 
d="M1118 1360l201 184l168 -184l-86 -959l-201 -176l-160 176zM2552 1360l192 184l168 -184l-90 -959l-188 -176l-168 176zM1241 2687l201 184l160 -184l-82 -958l-201 -185l-168 176zM2662 2687l201 176l168 -176l-86 -967l-201 -176l-159 176zM1434 369h991l168 -176
l-201 -185h-991l-168 185zM1663 3080h999l160 -176l-188 -184h-996l-168 184zM2142 3777l336 -472h-287l-344 472h295z" />
    <glyph glyph-name="oacute" unicode="&#xf3;" horiz-adv-x="3199" 
d="M1118 1360l201 184l168 -184l-86 -959l-201 -176l-160 176zM2552 1360l192 184l168 -184l-90 -959l-188 -176l-168 176zM1241 2687l201 184l160 -184l-82 -958l-201 -185l-168 176zM2662 2687l201 176l168 -176l-86 -967l-201 -176l-159 176zM1434 369h991l168 -176
l-201 -185h-991l-168 185zM1663 3080h999l160 -176l-188 -184h-996l-168 184zM2257 3777h295l-344 -472h-287z" />
    <glyph glyph-name="ocircumflex" unicode="&#xf4;" horiz-adv-x="3199" 
d="M1118 1360l201 184l168 -184l-86 -959l-201 -176l-160 176zM2552 1360l192 184l168 -184l-90 -959l-188 -176l-168 176zM1241 2687l201 184l160 -184l-82 -958l-201 -185l-168 176zM2662 2687l201 176l168 -176l-86 -967l-201 -176l-159 176zM1434 369h991l168 -176
l-201 -185h-991l-168 185zM1663 3080h999l160 -176l-188 -184h-996l-168 184zM2114 3641h229l336 -336h-336l-119 119l-110 -119h-336z" />
    <glyph glyph-name="otilde" unicode="&#xf5;" horiz-adv-x="3199" 
d="M1135 1352l200 184l168 -184l-86 -959l-200 -176l-160 176zM2568 1352l193 184l168 -184l-90 -959l-193 -176l-168 176zM1257 2679l197 184l164 -184l-82 -959l-201 -184l-168 176zM2679 2679l200 176l168 -176l-86 -967l-200 -176l-160 176zM1450 360h991l168 -176
l-201 -184h-991l-168 184zM1679 3072h1000l160 -176l-193 -184h-991l-168 184zM2425 3510l102 107h266l-290 -336h-176l-119 119l-111 -119h-336l336 336h230z" />
    <glyph glyph-name="odieresis" unicode="&#xf6;" horiz-adv-x="3199" 
d="M1118 1360l201 184l168 -184l-86 -959l-201 -176l-160 176zM2552 1360l192 184l168 -184l-90 -959l-188 -176l-168 176zM1241 2687l201 184l160 -184l-82 -958l-201 -185l-168 176zM2662 2687l201 176l168 -176l-86 -967l-201 -176l-159 176zM1434 369h991l168 -176
l-201 -185h-991l-168 185zM1663 3080h999l160 -176l-188 -184h-996l-168 184zM1823 3658h352l-33 -353h-348zM2298 3658h356l-28 -353h-353z" />
    <glyph glyph-name="oslash" unicode="&#xf8;" horiz-adv-x="3097" 
d="M1049 1352l200 184l168 -184l-90 -959l-201 -176l-159 176zM2474 1352l197 184l159 -184l-77 -959l-201 -176l-168 176zM1167 2679l201 176l160 -176l-78 -967l-201 -176l-168 176zM2593 2679l192 176l168 -176l-90 -967l-192 -176l-168 176zM1360 360h991l160 -176
l-193 -184h-991l-168 184zM1593 3072h992l168 -184l-201 -176h-991l-160 176zM2343 2662h201l-41 -479l-926 -1773h-201l41 471z" />
    <glyph glyph-name="ugrave" unicode="&#xf9;" horiz-adv-x="3207" 
d="M2544 1352l192 184l168 -184l-82 -951l-196 -184l-168 184zM1118 1360l201 176l160 -176l-78 -959l-201 -176l-160 176zM2671 2896l200 184l168 -184l-102 -1176l-201 -184l-168 184zM1257 2904l197 176l164 -184l-107 -1176l-192 -184l-168 184zM1434 369h991l168 -176
l-201 -185h-991l-168 185zM2130 3777l336 -472h-291l-344 472h299z" />
    <glyph glyph-name="uacute" unicode="&#xfa;" horiz-adv-x="3207" 
d="M2544 1352l192 184l168 -184l-82 -951l-196 -184l-168 184zM1118 1360l201 176l160 -176l-78 -959l-201 -176l-160 176zM2671 2896l200 184l168 -184l-102 -1176l-201 -184l-168 184zM1257 2904l197 176l164 -184l-107 -1176l-192 -184l-168 184zM1434 369h991l168 -176
l-201 -185h-991l-168 185zM2257 3777h295l-344 -472h-287z" />
    <glyph glyph-name="ucircumflex" unicode="&#xfb;" horiz-adv-x="3207" 
d="M2544 1352l192 184l168 -184l-82 -951l-196 -184l-168 184zM1118 1360l201 176l160 -176l-78 -959l-201 -176l-160 176zM2671 2896l200 184l168 -184l-102 -1176l-201 -184l-168 184zM1257 2904l197 176l164 -184l-107 -1176l-192 -184l-168 184zM1434 369h991l168 -176
l-201 -185h-991l-168 185zM2040 3641h233l336 -336h-336l-123 119l-110 -119h-336z" />
    <glyph glyph-name="udieresis" unicode="&#xfc;" horiz-adv-x="3207" 
d="M2544 1352l192 184l168 -184l-82 -951l-196 -184l-168 184zM1118 1360l201 176l160 -176l-78 -959l-201 -176l-160 176zM2671 2896l200 184l168 -184l-102 -1176l-201 -184l-168 184zM1257 2904l197 176l164 -184l-107 -1176l-192 -184l-168 184zM1434 369h991l168 -176
l-201 -185h-991l-168 185zM1847 3658h353l-33 -353h-352zM2318 3658h361l-33 -353h-348z" />
    <glyph glyph-name="yacute" unicode="&#xfd;" 
d="M1528 1720h999l160 -176l-193 -184h-991l-168 184zM2527 1327l193 176l168 -176l-78 -926l-201 -184l-168 184zM2662 2896l193 184l168 -184l-103 -1143l-192 -184l-168 184zM1241 2904l201 176l160 -184l-99 -1143l-200 -176l-168 176zM1417 369h991l168 -176l-200 -185
h-992l-167 185zM2417 3777h295l-345 -472h-286z" />
    <glyph glyph-name="ydieresis" unicode="&#xff;" 
d="M1528 1720h999l160 -176l-193 -184h-991l-168 184zM2527 1327l193 176l168 -176l-78 -926l-201 -184l-168 184zM2662 2896l193 184l168 -184l-103 -1143l-192 -184l-168 184zM1241 2904l201 176l160 -184l-99 -1143l-200 -176l-168 176zM1417 369h991l168 -176l-200 -185
h-992l-167 185zM1831 3658h352l-33 -353h-352zM2306 3658h356l-28 -353h-353z" />
    <glyph glyph-name="dotlessi" unicode="&#x131;" horiz-adv-x="1622" 
d="M1192 2888l192 184l168 -184l-102 -1176l-193 -184l-167 176zM1057 1352l200 176l160 -185l-98 -1167l-201 -176l-168 176z" />
    <glyph glyph-name="OE" unicode="&#x152;" horiz-adv-x="4354" 
d="M1008 1360l200 176l168 -176l-90 -967l-196 -176l-168 176zM2441 1360l193 176l168 -176l-90 -967l-193 -176l-168 176zM1126 2687l193 176l168 -176l-86 -967l-193 -184l-168 184zM2552 2687l201 176l167 -184l-90 -959l-196 -184l-160 184zM1319 360h991l168 -176
l-197 -184h-995l-168 184zM1552 3080h1000l160 -184l-193 -184h-999l-160 184zM2896 1720h999l168 -184l-200 -176h-992l-168 176zM2744 360h992l167 -184l-200 -176h-983l-168 184zM2990 3064h1004l159 -176l-200 -185h-992l-159 185z" />
    <glyph glyph-name="oe" unicode="&#x153;" horiz-adv-x="4354" 
d="M1008 1360l200 176l168 -176l-90 -967l-196 -176l-168 176zM2441 1360l193 176l168 -176l-90 -967l-193 -176l-168 176zM1126 2687l193 176l168 -176l-86 -967l-193 -184l-168 184zM2552 2687l201 176l167 -184l-90 -959l-196 -184l-160 184zM1319 360h991l168 -176
l-197 -184h-995l-168 184zM1552 3080h1000l160 -184l-193 -184h-999l-160 184zM2896 1720h999l168 -184l-200 -176h-992l-168 176zM2744 360h992l167 -184l-200 -176h-983l-168 184zM2990 3064h1004l159 -176l-200 -185h-992l-159 185z" />
    <glyph glyph-name="florin" unicode="&#x192;" horiz-adv-x="3056" 
d="M1040 1704h455l168 -184l-201 -185h-454l-160 185zM1610 2671l196 184l168 -184l-78 -934l-200 -185l-168 177zM2040 3072h713l159 -184l-200 -185h-705l-168 185zM1655 -942l-398 -369l238 2614l201 184l168 -184zM1929 1704h479l168 -184l-200 -185h-480l-167 185z" />
    <glyph glyph-name="circumflex" unicode="&#x2c6;" horiz-adv-x="1696" 
d="M1049 3482h233l336 -336h-336l-123 119l-110 -119h-336z" />
    <glyph glyph-name="breve" unicode="&#x2d8;" horiz-adv-x="1753" 
d="M1266 3146h-291l-406 405h406l143 -143l148 143h405z" />
    <glyph glyph-name="ring" unicode="&#x2da;" horiz-adv-x="1815" 
d="M1393 3482h344l-33 -336h-336zM1503 3367l-8 -111h107l8 111h-107z" />
    <glyph glyph-name="tilde" unicode="&#x2dc;" horiz-adv-x="1823" 
d="M1376 3375l103 107h266l-291 -336h-172l-123 119l-110 -119h-336l336 336h233z" />
    <glyph glyph-name="quoteleft" unicode="&#x2018;" horiz-adv-x="1688" 
d="M1241 2888h369l-66 -672h-360z" />
    <glyph glyph-name="quoteright" unicode="&#x2019;" horiz-adv-x="1688" 
d="M1241 2888h369l-66 -672h-360z" />
    <glyph glyph-name="quotedblleft" unicode="&#x201c;" horiz-adv-x="2335" 
d="M1241 2888h369l-66 -672h-360zM1864 2888h368l-65 -672h-361z" />
    <glyph glyph-name="quotedblright" unicode="&#x201d;" horiz-adv-x="2335" 
d="M1241 2888h369l-66 -672h-360zM1864 2888h368l-65 -672h-361z" />
    <glyph glyph-name="quotedblbase" unicode="&#x201e;" horiz-adv-x="2351" 
d="M1417 344l-33 -344l-208 -176l-160 176l33 344h368zM2241 344l-33 -344l-209 -176l-160 176l33 344h369z" />
    <glyph glyph-name="ellipsis" unicode="&#x2026;" horiz-adv-x="2023" 
d="M537 352h352l-33 -352h-352zM1057 352h352l-33 -352h-352zM1577 352h352l-33 -352h-352z" />
    <glyph glyph-name="perthousand" unicode="&#x2030;" horiz-adv-x="4375" 
d="M426 3072h422l168 -176l-201 -184h-422l-160 184zM0 2679l201 184l159 -184l-49 -565l-200 -177l-168 177zM336 2081h434l160 -185l-201 -176h-426l-160 176zM848 2679l201 176l159 -176l-49 -565l-201 -185l-159 176zM3330 1352h422l168 -176l-201 -185h-422l-159 185z
M2904 958l193 185l168 -185l-50 -565l-200 -176l-168 176zM3240 360h430l164 -176l-201 -184h-426l-160 184zM3752 958l201 177l159 -177l-49 -565l-200 -184l-160 184zM2032 1352h426l159 -176l-192 -185h-426l-168 185zM1602 958l196 185l168 -185l-53 -565l-201 -176
l-160 176zM1946 360h421l160 -176l-192 -184h-422l-168 184zM2449 958l197 177l172 -177l-57 -565l-193 -184l-168 184zM1335 3072h361l-271 -3072h-360z" />
    <glyph glyph-name="guilsinglleft" unicode="&#x2039;" horiz-adv-x="1602" 
d="M1049 1552l454 -368l25 -295l-848 663l737 631l25 -303z" />
    <glyph glyph-name="guilsinglright" unicode="&#x203a;" horiz-adv-x="1602" 
d="M1159 1552l-385 328l25 303l729 -631l-848 -663l25 295z" />
  </font>
</defs>
</svg>
